# xmcd
#
# Track frame offsets:
#	150
#	9894
#	22665
#	35172
#	46067
#	59190
#	73691
#	85684
#	98371
#	111982
#	123793
#	133525
#	146478
#	158651
#	171191
#	184205
#	194810
#	209595
#	223092
#	237714
#
# Disc length: 3410 seconds
#
# Revision: 1
# Processed by: cddbd v1.5.2PL0 Copyright (c) Steve Scherf et al.
# Submitted via: audiograbber 1.83.01
#
DISCID=200d5014
DTITLE=Various Artist - Immortal Soul [CD1]
DYEAR=2008
DGENRE=Soul
TTITLE0=Ray Charles - I Want To Know
TTITLE1=The Isley Brothers - It's Your Thing
TTITLE2=Otis Redding - Sitting On The Dock Of The Bay
TTITLE3=Aretha Franklin - Respect
TTITLE4=Booker T and The MGs - Green Onions
TTITLE5=Marvin Gaye - I Heard It Through The Grapevine
TTITLE6=The Supremes - You Keep Me Hanging On
TTITLE7=James Brown - It's A Man's Man's Man's World
TTITLE8=Etta James - At Last
TTITLE9=Sam And Dave - Hold On I'm Comin'
TTITLE10=Little Richard - Long Tall Sally
TTITLE11=Percy Sledge - When A Man Loves A Woman
TTITLE12=Little Willie John - Fever
TTITLE13=Smokey Robinson And The Miracles - I Second That Emotion
TTITLE14=Ben E King - Stand By Me
TTITLE15=Carla Thomas - Gee Whiz (Look In His Eyes)
TTITLE16=The Staple Singers - I'll Take You There
TTITLE17=Ike And Tina Turner - Nutbush City Limits
TTITLE18=Carl Hall - You Don't Know Nothing About Love
TTITLE19=Nina Simone - I Shall Be Released
EXTD=
EXTT0=
EXTT1=
EXTT2=
EXTT3=
EXTT4=
EXTT5=
EXTT6=
EXTT7=
EXTT8=
EXTT9=
EXTT10=
EXTT11=
EXTT12=
EXTT13=
EXTT14=
EXTT15=
EXTT16=
EXTT17=
EXTT18=
EXTT19=
PLAYORDER=
